<?xml version="1.0" encoding="UTF-8"?>
<svg id="Layer_1" data-name="Layer 1" xmlns="http://www.w3.org/2000/svg" viewBox="0 0 465.58 355.82">
  <defs>
    <style>
      .cls-1 {
        fill: #818286;
      }

      .cls-2 {
        fill: #474649;
        isolation: isolate;
        opacity: .86;
      }

      .cls-3 {
        fill: #00a986;
      }
    </style>
  </defs>
  <g id="Layer_2" data-name="Layer 2">
    <path class="cls-3" d="m98.52,256.25c-46.21-.58-67.58-.47-75.17,0-.32.02-1.93.12-4.05-.15-8.04-1.03-17.11-6.59-18.88-14.6-.2-.89-.34-1.99-.31-3.29C.85,155.8.66,126.02.11,121.04c-.05-.42-.24-1.98.02-4.01.84-6.44,5.41-10.72,6.94-12.15,1.7-1.59,5.36-4.94,10.89-5.73.99-.14,1.82-.17,2.41-.17h79.11l-.46-76.13c-.1-1.02-.1-1.98-.04-2.89.58-8.31,6.6-15.86,13.49-18.99.75-.34,1.37-.57,1.61-.65h18.42l100.66-.23c.97-.09,2.29-.14,3.84,0,3.79.35,6.49,1.64,7.11,1.95,3.25,1.61,5.12,3.75,6.65,5.5,1.6,1.83,3.79,4.33,4.87,8.2.43,1.52.52,2.95.69,5.73.22,3.67.19,6.74.11,8.94l.06,44.31-14.85,279.29c-83.31-.41-121.51-.37-125.2,0-.25.02-1.26.14-2.58-.06-3.52-.53-5.89-2.92-8.03-5.04-.52-.52-2.59-2.63-4.53-5.96-.93-1.6-1.57-3.03-2.01-4.13l-.78-82.57h0Z"/>
  </g>
  <g id="Layer_3" data-name="Layer 3">
    <path class="cls-1" d="m106.52,349.71c1.07,1.17,3.2,3.19,6.54,4.53,3.55,1.43,6.68,1.36,8.27,1.22h185.89c.16-14.85,1.25-27.4,2.45-37.15,0,0,1.7-13.86,9.02-25.53,2.76-4.4,5.45-5.42,6.88-5.73,1.2-.27,2.24-.21,2.92-.11-.21-.78-.87-3.6.63-6.48.32-.62,1.32-2.48,3.44-3.5,1.25-.6,2.29-.62,4.62-.61,3,0,5.52.04,7.41.08-2.3-5.02-2.53-9.27-2.45-11.69.1-2.99.2-6.03,2.37-8.1,1.59-1.52,3.6-1.77,7.57-2.22,2.39-.27,5.68-.45,9.63-.08l19.26.76,18.65,1.07,15.13.46,7.26-.46c2.98-1.01,7.16-2.77,11.54-5.89,7.33-5.22,11.08-11.29,14.06-16.13,5.25-8.53,7.1-16.02,7.49-17.66.24-1.04.42-1.91.54-2.52l1.15-.92c1.54-1.45,3.72-3.83,5.5-7.26,2.49-4.79,2.87-9.03,3.06-11.39.34-4.37.77-9.78-2.52-14.68-1.9-2.82-4.26-4.32-6.11-5.5-4.55-2.9-8.8-3.65-11.31-4.13-6.68-1.26-13.2-3.27-19.87-4.59-7.18-1.42-25.21-5.15-41.66-16.59-4.99-3.47-8.66-6.83-10.85-8.98.62-1.4,1.36-3.63,1.15-6.31-.28-3.56-2.1-6.07-4.01-8.48-4.98-6.31-7.47-9.46-11.92-13.07-5.37-4.35-11.17-9.05-19.83-11.12-3.8-.91-10.56-1.1-24.08-1.49-2.01-.06-3.67-.09-4.82-.11-2.82-11.91-4.45-28.02.69-45.29.67-2.26,1.42-4.42,2.24-6.48-5.39,3.41-11.95,8.74-17.08,16.85-.96,1.51-1.79,3.01-2.52,4.47.35-8.38-.67-20.91-8.66-31.59-.79-1.06-1.62-2.05-2.46-2.98-1.01,6.75-3.5,15.89-10.26,23.96-2.18,2.6-3.15,2.85-5.85,5.73-4.72,5.04-21.47,22.95-25.11,45.17-.47,2.89-.81,6.39-3.13,10.51-3.31,5.87-7.59,7.55-11.69,11.46-7.09,6.76-8.44,15.21-9.71,19.34-3.06,10-19.69,40.71-74.68,126.11l-35.56,71.68.8,1.38-.02.04Z"/>
  </g>
  <g id="Layer_4" data-name="Layer 4">
    <path class="cls-2" d="m115.83,300.7c-.68-.06-1.76-.26-2.83-.96-2.4-1.55-3.39-4.65-2.87-6.92.58-2.53,3.01-3.95,3.97-4.55,8.19-5.1,13.27-14.84,15.75-19.57,1.2-2.29,2.12-4.8,3.4-19.11,2.49-27.67-.03-28.53,2.98-37.22,4.04-11.68,11.86-19.65,16.43-24.31,5.31-5.41,10.5-9.18,14.45-11.69-.19-2.04-.49-4.13-.92-6.27-3.7-18.56-15.28-31.68-24-39.44,2.3-.13,4.51-.12,6.65,0,27.34,1.58,47.07,22.31,56.48,34.09l7.95.08c.44-1.14.85-2.34,1.22-3.59,2.43-8.28,2.09-15.97,1.07-21.86l-2.75-38.98c.95.15,2.72.45,4.89.99,22.41,5.59,40.53,24.93,48.31,45.94,1.08,2.92,2.59,7.57,3.59,13.61,1.47-.17,3.55-.32,6.04-.23,3.14.12,9.26.72,17.58,4.66,12.09,5.73,21.48,15.04,24.84,18.5,2.48,2.55,11.8,12.32,23.77,32.03,5.54,9.12,12.45,21.69,19.03,37.45-1.34.08-3.36.23-5.81.54-5.36.68-8.04,1.01-9.48,2.06-4.21,3.08-4.28,10.34-3.21,14.75.61,2.54,1.69,4.47,2.52,5.73-1.1.06-2.81.12-4.92.11-4.15-.03-4.56-.33-5.88.09-3.74,1.19-5.35,5.2-5.47,5.53-.75,1.96-.68,3.7-.57,4.64-.57-.01-1.41.02-2.38.26-6.83,1.66-9.97,10.87-12.67,19.15-1.37,4.21-2.84,10.08-4.13,21.1-1.04,8.88-1.39,16.48-1.49,22.24l-.32,5.54-118.01.61c-.52.11-1.2.22-1.3,0-.13-.28.77-.96.96-1.11,2.47-1.94,3.62-8.02,3.86-9.29.84-4.47.39-8.33-.15-10.89-.9.29-2.23.71-3.86,1.2-6.45,1.94-12.15,3.3-14.1,3.69-6.3,1.26-17.68,1.26-29.01-3.86-10.46-4.73-16.42-11.81-19.2-15.19-6.14-7.46-9.13-14.88-10.61-19.55"/>
  </g>
</svg>